<?xml version="1.0" encoding="UTF-8"?>
<svg xmlns="http://www.w3.org/2000/svg" viewBox="0 0 500 500" width="500" height="500">
<path d="M123.79 57.25C128.88 56.8 134.14 57.42 139.25 57.43C154.71 57.46 170.33 58.03 185.75 57.44C202.31 56.81 219.24 57.18 235.75 57.44C265.32 57.9 295.1 57.42 324.75 57.44C357.72 57.46 394.6 52.85 423.41 71.82C447.24 87.51 455.09 120.53 453.85 147.25C452.85 168.77 453.65 190.7 453.86 212.25C454.23 252.05 453.43 291.89 453.74 331.7C453.79 339.38 453.69 347.08 453.69 354.75C453.7 359.45 454.38 364.6 453.66 369.25C450.2 391.55 444.82 413.17 425.91 427.65C410.51 439.45 392.26 443.25 373.25 445C371.81 445.13 370.67 445.84 369.25 445.97C358.57 446.91 347.44 445.79 336.75 445.81C309.99 445.87 283.02 446.77 256.25 446.02C238.67 445.53 220.78 445.46 203.25 446.02C183.71 446.64 164.25 445.37 144.75 445.87C108.12 446.81 67.97 437.54 52.35 400.4C44.2 381.03 44.08 359.56 44.38 338.75C44.61 322.8 44.72 306.72 44.41 290.75C43.73 256.53 43.88 222.03 44.5 187.75C45.19 148.97 38.65 101.84 72.78 74.53C77.95 70.39 83.73 66.64 89.91 64.21C100.86 59.9 112.14 58.27 123.79 57.25ZM238.75 116.74C236.02 115.21 225.44 115.59 222.18 116.25C220.74 121.51 224.94 129.04 226.76 133.96C230.46 143.94 233.29 154.39 236.77 164.41C238 167.96 238.33 171.89 239.84 175.38C241.25 178.62 243.39 191.21 246.8 191.81C249.2 192.24 262.54 192.49 264.05 191.31C265.71 190.02 269.45 176.49 270.36 173.66C274.59 160.51 278.87 147.53 283.17 134.37C284.7 129.7 288.84 120.58 287.75 116.05C282.53 116.05 277.31 116.05 272.09 116.05C269.36 119.54 269.13 124.95 267.8 129.11C264.65 138.93 262.48 149.06 259.15 158.86C257.87 162.63 257.62 167.57 255.25 170.75C249.75 152.75 244.25 134.74 238.75 116.74ZM332.75 169.03C334.49 165.37 334.14 161.17 333.44 157.25C332.28 150.71 330.3 144.33 324.52 140.23C311.1 130.72 288.94 137.27 284.12 153.35C279.59 168.5 284.66 186.71 300.84 191.86C308.11 194.18 318.87 192.95 325.34 189.09C327.94 187.54 331.62 185.43 332.05 182.25C329.75 179.53 325.38 174.82 321.75 174.93C319.3 177.64 316.59 180.04 312.75 180.78C305.82 182.12 299.23 175.58 299.08 169.03C310.3 169.03 321.53 169.03 332.75 169.03ZM386.75 143.19C378.47 136.37 372.32 132.77 361.26 137.99C358.69 139.2 357 142.39 354.39 142.82C354.39 141.27 354.39 139.71 354.39 138.16C351.69 136.57 342.18 136.42 339.52 138.25C338.26 142.45 339.39 147.42 339.54 151.75C339.81 159.9 339.83 168.1 339.73 176.25C339.69 179.35 338.55 188.08 339.76 190.51C340.96 192.91 352.75 192.21 354.74 190.75C356.54 182.48 354.4 168.08 355.04 158.75C355.39 153.58 359.15 148.42 364.75 148.89C370.27 149.35 371.04 155.33 371.2 159.75C371.48 167.25 371.37 174.75 371.43 182.25C371.45 185.09 370.52 189.08 372.25 191.48C375.46 192.59 383.81 192.9 386.75 191.12C388.06 188.51 387.37 184.65 387.36 181.75C387.32 174.27 387.02 166.8 387.24 159.32C387.39 154.01 390.73 148.46 396.75 148.88C402.94 149.31 403.3 155.32 403.35 160.25C403.43 167.1 403.76 173.9 403.76 180.75C403.76 183.57 402.79 187.47 403.67 190.14C404.55 192.8 416.67 192.35 418.75 191.07C420.42 185.93 419.17 166.83 419.14 160.25C419.12 156.22 420.04 150.85 418.72 147.02C415.11 136.54 402.75 133.42 393.32 138.06C390.83 139.28 388.81 141.4 386.75 143.19ZM318.25 158.89C311.92 158.89 305.58 158.89 299.25 158.89C297.49 148.48 313.03 144.42 317.33 153.9C318.19 155.78 318.79 156.84 318.25 158.89ZM96.55 189.75C94.19 187 80.83 180.6 77.48 181.25C73.81 185.68 72.58 195.13 70.81 200.64C67.97 209.49 65.32 218.47 62.76 227.53C61.38 232.42 59.27 237.63 59.05 242.75C60.83 245.09 74.12 250.87 76.75 249.94C83.35 229.87 89.95 209.81 96.55 189.75ZM214.75 256.58C215.43 253.19 213.33 244.48 212.5 240.73C210.41 231.33 208.81 222 205.26 213.04C204.08 210.04 203.03 202.42 200.78 200.47C199.19 199.08 196.46 198.54 194.54 197.71C189.37 195.46 184.43 192.33 179.4 189.79C173.52 186.81 166.67 181.75 159.75 181.97C149.82 182.29 141.52 188.73 133.49 193.72C130.16 195.79 126.1 197.79 124.07 201.34C121.85 205.22 122.12 209.45 120.79 213.59C119.87 216.43 115.3 221.99 116.34 224.39C117 225.9 118.45 227.08 119.6 228.17C127.09 235.28 134.9 224.18 139 218.71C140.33 216.93 140.63 213.62 142.5 212.27C145.95 209.77 156.11 207.39 160.25 207.07C163.77 211.8 166.32 217.02 170.28 221.46C178.42 230.6 188.55 237.94 197.32 246.43C201.85 250.83 207.78 259.6 214.75 256.58ZM220.3 255.75C222.7 256.79 235.05 253.29 236.09 250.77C237.61 247.11 235.21 241.99 235.06 238.23C234.68 229.16 231.3 212.46 228.43 203.77C227.55 201.12 226.62 192.24 224.03 191.24C222.57 190.68 208.18 195.73 206.28 196.75C205.28 199.56 209.6 209.27 210.73 212.55C213.6 220.93 216.05 229.99 217.54 238.75C218.32 243.36 218.68 251.77 220.3 255.75ZM125.73 192.75C119.78 189.53 107.36 195.36 101.25 194.4C98.35 197.18 97.85 202.29 96.71 205.96C94.58 212.84 91.54 219.56 89.11 226.34C87.73 230.19 87.27 234.38 85.87 238.2C84.5 241.94 82.12 246.68 82.55 250.75C87.16 252.32 93.32 244.21 100.69 247.51C103.43 248.75 106.33 251.28 107.79 253.93C108.54 255.3 108.86 258.02 110.44 258.77C111.36 259.2 112.55 258.94 113.53 259.26C116.05 260.07 118.82 261.78 120.97 263.3C123.32 264.95 124.54 268.34 127.06 269.68C130.44 271.47 134.08 271.96 137.23 274.48C139.41 276.22 140.71 279.34 143 280.74C145.13 282.04 147.77 281.75 149.92 283.34C152.27 285.07 153.36 287.99 155.56 289.69C162.92 295.4 173.49 306.57 178.11 291.25C176.79 287.88 173.14 285.61 170.41 283.34C164.83 278.7 159.62 273.91 154.06 269.2C152.07 267.52 149.25 265.99 147.94 263.75C148.37 261.13 149.79 260.88 152.26 261.25C155.6 265.43 160.83 268.9 165.05 272.22C170.02 276.12 174.36 280.52 179.46 284.28C182.31 286.38 187.05 291.03 190.66 287.41C193.13 284.92 195.52 280.81 193.44 277.33C191.87 274.7 188.16 272.84 185.88 270.86C178.49 264.42 168.3 257.26 162.28 249.75C163.27 248.88 164.26 248.01 165.25 247.15C168.64 248.28 171.52 252.22 174.28 254.48C180.91 259.92 187.76 265.36 194.03 271.22C198.48 275.37 204.92 277.2 207.82 270.11C210.75 262.97 202.17 258.33 198.17 254.1C189.19 244.57 178.67 236.65 169.45 227.29C165.15 222.93 162.25 217.72 158.25 213.22C154.93 212.54 148.69 213.95 145.91 216.16C143.89 217.77 142.66 221.83 141.29 224.04C137.54 230.08 128.22 237.8 120.48 234.73C116.58 233.18 110.22 226.11 111.28 221.59C112.01 218.48 115.02 216.69 115.99 213.72C117.63 208.67 117.24 203.11 120.22 198.45C121.68 196.15 124.57 194.95 125.73 192.75ZM341.3 233.75C342.46 231 340.56 227.42 339.38 224.84C334.85 214.94 325.25 209.47 314.75 208.05C311.35 207.59 308.55 208.46 305.32 208.92C284.85 211.8 276.08 228.31 276.37 247.75C276.74 273.2 293.77 293.82 321.26 286.1C329.35 283.83 336.09 277.77 339.36 270.13C340.52 267.44 342.51 264.04 340.86 261.25C337.91 260.38 327.01 259.96 324.34 261.25C322.99 263.92 322.57 267.03 320.64 269.39C313.57 278.02 299.76 270.93 296.35 262.4C293.13 254.34 293.12 240.63 296.32 232.58C299.72 224.02 313.05 219.33 320.12 226.14C322.15 228.09 323.22 233.87 325 234.73C327.83 236.08 338.35 235.11 341.3 233.75ZM387.54 210.25C385.92 208.25 382.63 209 380.25 208.98C377.9 208.97 374.67 208.43 372.45 209.25C370.23 210.08 363.96 221.37 363.73 223.75C366.12 225.87 372.92 225.51 375.59 223.81C378.4 222.01 386.75 213.27 387.54 210.25ZM394.92 285.75C396.24 280.27 394.8 273.78 394.41 268.25C393.68 257.72 398.36 241.41 389.29 233.96C377.84 224.56 347.55 227.77 348.86 246.75C352.16 248.24 360.34 248.68 363.75 247.29C364.95 245.26 364.93 242.81 367.4 241.67C373.81 238.73 380.09 243.51 378.71 250.25C376.52 251.29 374.11 250.72 371.75 251.07C363.72 252.29 353.75 253.63 348.87 261.14C343.26 269.76 347.11 282.33 356.75 286.04C365.02 289.22 372.8 286.66 379.25 281.35C379.53 282.81 379.81 284.28 380.09 285.75C383.88 287.72 390.96 287.03 394.92 285.75ZM93.9 252.2C85.91 254.69 79.36 271.48 91.25 273.06C92.35 273.21 93.56 273.33 94.59 272.81C96.43 271.88 104.55 262.55 104.81 260.68C105.57 254.98 98.95 250.63 93.9 252.2ZM378.75 260.46C379.37 263.69 379.37 267.86 377.3 270.56C374.58 274.1 366.72 277.6 363.32 272.95C357.51 264.98 373.25 259.11 378.75 260.46ZM110.75 263.99C108.46 264.91 99.89 273.41 99.01 275.79C96.48 282.61 102.8 288.37 109.25 287.99C111.93 285.28 121.62 275.44 121.1 271.75C120.7 268.87 117.67 267.19 115.55 265.71C114.27 264.82 112.27 264.28 110.75 263.99ZM127.35 275.7C124.91 275.99 122.98 279.57 121.55 281.31C119.84 283.4 117.35 285.43 116.11 287.87C113.88 292.26 116.4 298.81 121.4 299.77C124.24 300.32 126.85 296.62 128.59 294.84C130.84 292.56 137.07 287.54 137.76 284.58C138.73 280.41 130.89 275.28 127.35 275.7ZM143.82 286.13C142.02 286.57 140.16 289.81 138.9 291.15C135.88 294.35 128.86 298.63 131.72 303.53C132.7 305.2 134.57 306.69 136.41 307.28C140.81 308.69 150.88 298.28 151.15 294.25C151.38 291.03 147.7 285.19 143.82 286.13ZM156.25 296.37C154.64 298.5 153.03 300.62 151.42 302.75C153.43 307.75 160.88 306.67 163.45 302.75C162.92 299.85 158.8 297.56 156.25 296.37ZM423.75 298.48C416.81 294.75 401.61 299.4 397.74 306.47C395.47 310.64 396.22 315.04 395.75 319.53C393.2 320.48 389.85 319.08 387.47 320.26C385.02 321.47 386.68 331.04 387.75 333.06C390.44 333.06 393.13 333.06 395.82 333.06C395.82 347.12 395.82 361.19 395.82 375.25C398.95 377.23 407.38 376.77 410.9 375.75C412.69 372.13 411.44 367.16 411.4 363.25C411.29 353.94 410.04 342.28 411.6 333.25C414.51 332.77 418.84 334.04 421.49 332.73C424.15 331.41 423.52 323 422.7 320.75C419.74 318.96 415.12 320.31 411.75 319.76C410.52 309.15 416.72 311.51 423.04 309.75C424.54 306.93 424.68 301.5 423.75 298.48ZM255.75 350.99C266.51 349.01 276.19 352.22 285.55 344.29C297.13 334.48 295.7 312.29 283.05 304.22C274.91 299.03 264.46 299.94 255.25 299.89C251.55 299.86 242.21 298.95 239.35 300.75C238.1 304.81 239.36 309.98 239.06 314.25C238.08 327.91 238.62 342.05 238.9 355.75C239.03 361.91 237.33 370.32 239.53 376.08C244.6 376.08 249.68 376.08 254.75 376.08C255.08 367.71 255.42 359.35 255.75 350.99ZM255.12 336.25C255.12 328.98 255.12 321.72 255.12 314.45C260.21 312.86 269.86 313.18 273.68 317.56C275.6 319.78 276.13 322.4 276.16 325.25C276.28 333.76 272.01 335.76 264.25 336.51C261.36 336.79 257.93 336.9 255.12 336.25ZM331.75 319.89C327.19 317.37 320.95 320.06 317.61 323.37C316.32 324.65 315.51 326.45 314.05 327.34C314.05 325.31 314.05 323.28 314.05 321.25C309.79 319.31 303.2 319.15 298.89 321.25C297.96 325.94 298.74 331 298.8 335.75C298.92 344.41 298.86 353.09 298.83 361.75C298.81 365.68 297.27 372.74 299.75 375.91C303.5 376.44 310.34 377.2 313.75 375.49C315.28 372.99 314.26 368.64 314.21 365.75C314.08 357.95 312.04 343.71 317.43 337.67C321.59 333.01 326.87 336.55 330.75 334.03C331.08 329.31 331.42 324.6 331.75 319.89ZM357.4 319.25C322.07 321.84 325.42 379.73 361.25 376.88C397.37 374 394.04 316.55 357.4 319.25ZM358.23 332.07C360.13 331.69 361.18 332.27 362.82 332.88C371.1 335.92 370.85 345.65 370.02 353.25C369.6 357.14 367.64 362.78 363.22 363.86C345.31 368.26 343.68 334.97 358.23 332.07Z" fill="#307ed4" fill-rule="evenodd" stroke="#307ed4" stroke-width="0.25" stroke-linejoin="round"/>
</svg>