<svg xmlns="http://www.w3.org/2000/svg" viewBox="0 0 192 192"
 preserveAspectRatio="xMidYMid meet">

<g transform="translate(0.000000,192.000000) scale(0.100000,-0.100000)"
fill="#000000" stroke="none">
<path d="M368 1676 c-55 -20 -93 -47 -127 -90 -59 -74 -61 -89 -61 -636 -1
-461 1 -501 18 -545 23 -59 63 -109 110 -139 80 -49 100 -51 652 -51 459 0
521 2 571 17 71 22 116 53 151 103 55 79 58 116 58 617 0 459 -4 526 -37 593
-22 43 -72 93 -118 118 -40 22 -47 22 -610 24 -455 2 -577 0 -607 -11z m571
-263 c12 -36 21 -70 21 -74 0 -4 5 -20 11 -36 11 -26 13 -22 38 72 l28 100 36
3 c20 2 37 -1 37 -7 0 -5 -21 -73 -46 -151 l-45 -141 -41 3 -41 3 -43 135
c-24 74 -44 141 -44 148 0 7 13 12 34 12 33 0 35 -2 55 -67z m316 -38 c18 -18
25 -35 25 -65 l0 -40 -65 0 c-63 0 -65 -1 -55 -20 11 -21 54 -28 65 -10 8 13
16 12 40 -6 20 -15 20 -15 -4 -35 -29 -23 -107 -26 -138 -4 -28 20 -47 78 -39
120 15 77 119 113 171 60z m217 12 c13 -9 21 -8 30 1 18 18 73 15 91 -5 11
-13 16 -44 18 -108 l3 -90 -31 -3 -32 -3 -7 81 c-7 84 -15 100 -39 80 -11 -9
-15 -34 -15 -86 l0 -74 -35 0 -35 0 0 79 c0 81 -9 102 -35 81 -11 -9 -15 -34
-15 -86 l0 -74 -35 0 -35 0 0 109 0 109 77 0 c42 0 85 -5 95 -11z m-1137 -171
c19 -8 35 -20 35 -27 0 -7 -17 -61 -37 -121 l-36 -110 -31 6 c-17 4 -34 10
-39 15 -5 5 4 52 23 113 17 56 33 111 36 121 6 21 6 21 49 3z m374 -30 c46
-24 71 -43 75 -58 22 -71 46 -165 46 -180 0 -35 -36 -16 -116 60 -44 42 -85
85 -90 95 -15 27 -71 12 -90 -25 -8 -16 -26 -34 -41 -41 -21 -9 -27 -8 -38 6
-10 14 -9 26 3 63 12 36 25 52 66 80 65 43 98 43 185 0z m-229 -1 c0 -4 -21
-54 -43 -102 -8 -18 -6 -27 8 -43 10 -11 25 -20 34 -20 20 1 55 29 70 56 23
45 44 36 150 -68 78 -75 102 -104 99 -121 -5 -37 -33 -30 -99 27 -35 30 -66
53 -68 50 -4 -4 5 -12 82 -79 30 -26 37 -38 32 -54 -10 -33 -35 -25 -100 29
-33 27 -64 50 -68 50 -5 0 19 -23 52 -52 62 -52 68 -64 39 -82 -17 -10 -22 -7
-108 59 -25 19 -54 39 -65 44 -12 5 -27 16 -34 25 -7 9 -18 16 -23 16 -5 0
-20 12 -33 28 -22 25 -25 26 -56 15 -18 -7 -34 -11 -36 -9 -3 2 12 54 33 114
33 100 39 111 63 115 42 6 71 7 71 2z m398 -33 c20 -66 36 -192 26 -201 -5 -5
-20 -11 -33 -13 -25 -3 -21 -13 -77 208 -5 17 0 24 23 32 44 16 49 14 61 -26z
m394 -54 c33 -23 47 -66 27 -79 -24 -15 -46 -10 -63 16 -50 76 -131 -25 -93
-117 19 -46 51 -55 84 -22 30 30 83 34 83 5 0 -28 -37 -68 -75 -81 -94 -31
-175 38 -175 150 0 80 34 130 100 148 42 12 76 6 112 -20z m218 14 c0 -15 -44
-50 -65 -52 -35 -4 -37 -1 -18 30 14 24 24 30 50 30 18 0 33 -4 33 -8z m-31
-72 c9 0 27 -9 39 -20 19 -18 22 -31 22 -110 0 -81 -2 -89 -20 -95 -12 -4 -27
-2 -34 4 -10 9 -21 8 -39 0 -54 -25 -118 31 -97 85 11 29 31 42 83 51 21 4 37
13 37 21 0 16 -36 19 -45 4 -8 -12 -75 -13 -75 -1 0 4 9 20 20 34 20 25 52 38
78 31 8 -2 21 -4 31 -4z m-1065 -96 c21 -21 20 -27 -8 -53 -47 -44 -90 0 -46
47 25 26 33 27 54 6z m57 -44 c25 -14 24 -28 -5 -64 -17 -21 -29 -26 -44 -22
-33 11 -35 36 -5 68 31 32 28 31 54 18z m77 -62 c5 -24 -41 -71 -64 -66 -45 8
-11 90 36 85 14 -1 26 -9 28 -19z m55 -52 c-3 -6 -15 -21 -26 -33 -15 -17 -24
-20 -38 -12 -26 13 -24 28 8 61 25 26 28 27 45 12 9 -9 15 -22 11 -28z m45
-23 c5 -17 -26 -29 -40 -15 -6 6 -7 15 -3 22 9 14 37 9 43 -7z m1002 -6 c0
-13 -9 -26 -22 -32 -32 -15 -35 -35 -4 -35 21 0 26 -5 26 -24 0 -18 -6 -25
-22 -28 -22 -3 -23 -8 -23 -83 l0 -80 -35 0 -35 0 3 78 c3 72 2 79 -17 84 -29
7 -29 53 -1 53 11 0 19 3 19 8 -7 45 27 82 76 82 30 0 35 -3 35 -23z m-529
-16 c37 -37 40 -93 6 -134 -17 -22 -33 -29 -75 -34 l-53 -6 3 -46 2 -46 -34 0
-35 0 -3 148 -3 147 82 0 c76 0 82 -2 110 -29z m177 -73 c-2 -24 -9 -34 -23
-36 -38 -7 -45 -22 -45 -94 l0 -69 -32 3 -33 3 -3 108 -3 108 45 -2 c25 -2 49
0 52 4 4 4 16 7 26 7 16 0 19 -6 16 -32z m147 18 c107 -45 71 -216 -46 -216
-110 0 -147 171 -47 215 42 18 51 18 93 1z"/>
<path d="M1161 1333 c-8 -16 -4 -18 25 -18 37 0 41 4 22 23 -17 17 -36 15 -47
-5z"/>
<path d="M1423 909 c-13 -5 -23 -15 -23 -24 0 -19 39 -20 46 0 10 24 1 33 -23
24z"/>
<path d="M980 670 c0 -37 2 -40 29 -40 39 0 57 23 43 55 -9 19 -19 25 -42 25
-28 0 -30 -2 -30 -40z"/>
<path d="M1349 613 c-15 -38 0 -77 30 -81 28 -4 41 12 41 54 0 56 -52 76 -71
27z"/>
</g>
</svg>
